<?xml version="1.0" encoding="utf-8" standalone="no"?>
<!DOCTYPE svg PUBLIC "-//W3C//DTD SVG 1.1//EN"
  "http://www.w3.org/Graphics/SVG/1.1/DTD/svg11.dtd">
<svg xmlns:xlink="http://www.w3.org/1999/xlink" width="720pt" height="288pt" viewBox="0 0 720 288" xmlns="http://www.w3.org/2000/svg" version="1.1">
 <metadata>
  <rdf:RDF xmlns:dc="http://purl.org/dc/elements/1.1/" xmlns:cc="http://creativecommons.org/ns#" xmlns:rdf="http://www.w3.org/1999/02/22-rdf-syntax-ns#">
   <cc:Work>
    <dc:type rdf:resource="http://purl.org/dc/dcmitype/StillImage"/>
    <dc:date>2025-03-16T16:58:47.973119</dc:date>
    <dc:format>image/svg+xml</dc:format>
    <dc:creator>
     <cc:Agent>
      <dc:title>Matplotlib v3.9.3, https://matplotlib.org/</dc:title>
     </cc:Agent>
    </dc:creator>
   </cc:Work>
  </rdf:RDF>
 </metadata>
 <defs>
  <style type="text/css">*{stroke-linejoin: round; stroke-linecap: butt}</style>
 </defs>
 <g id="figure_1">
  <g id="patch_1">
   <path d="M 0 288 
L 720 288 
L 720 0 
L 0 0 
z
" style="fill: #ffffff"/>
  </g>
  <g id="axes_1">
   <g id="patch_2">
    <path d="M 90 256.32 
L 648 256.32 
L 648 34.56 
L 90 34.56 
z
" style="fill: #ffffff"/>
   </g>
   <g id="matplotlib.axis_1">
    <g id="xtick_1">
     <g id="line2d_1">
      <defs>
       <path id="m7aae8e4175" d="M 0 0 
L 0 3.5 
" style="stroke: #000000; stroke-width: 0.8"/>
      </defs>
      <g>
       <use xlink:href="#m7aae8e4175" x="126.795114" y="256.32" style="stroke: #000000; stroke-width: 0.8"/>
      </g>
     </g>
     <g id="text_1">
      <!-- −3 -->
      <g transform="translate(119.42402 270.918437) scale(0.1 -0.1)">
       <defs>
        <path id="DejaVuSans-2212" d="M 678 2272 
L 4684 2272 
L 4684 1741 
L 678 1741 
L 678 2272 
z
" transform="scale(0.015625)"/>
        <path id="DejaVuSans-33" d="M 2597 2516 
Q 3050 2419 3304 2112 
Q 3559 1806 3559 1356 
Q 3559 666 3084 287 
Q 2609 -91 1734 -91 
Q 1441 -91 1130 -33 
Q 819 25 488 141 
L 488 750 
Q 750 597 1062 519 
Q 1375 441 1716 441 
Q 2309 441 2620 675 
Q 2931 909 2931 1356 
Q 2931 1769 2642 2001 
Q 2353 2234 1838 2234 
L 1294 2234 
L 1294 2753 
L 1863 2753 
Q 2328 2753 2575 2939 
Q 2822 3125 2822 3475 
Q 2822 3834 2567 4026 
Q 2313 4219 1838 4219 
Q 1578 4219 1281 4162 
Q 984 4106 628 3988 
L 628 4550 
Q 988 4650 1302 4700 
Q 1616 4750 1894 4750 
Q 2613 4750 3031 4423 
Q 3450 4097 3450 3541 
Q 3450 3153 3228 2886 
Q 3006 2619 2597 2516 
z
" transform="scale(0.015625)"/>
       </defs>
       <use xlink:href="#DejaVuSans-2212"/>
       <use xlink:href="#DejaVuSans-33" x="83.789062"/>
      </g>
     </g>
    </g>
    <g id="xtick_2">
     <g id="line2d_2">
      <g>
       <use xlink:href="#m7aae8e4175" x="207.530076" y="256.32" style="stroke: #000000; stroke-width: 0.8"/>
      </g>
     </g>
     <g id="text_2">
      <!-- −2 -->
      <g transform="translate(200.158982 270.918437) scale(0.1 -0.1)">
       <defs>
        <path id="DejaVuSans-32" d="M 1228 531 
L 3431 531 
L 3431 0 
L 469 0 
L 469 531 
Q 828 903 1448 1529 
Q 2069 2156 2228 2338 
Q 2531 2678 2651 2914 
Q 2772 3150 2772 3378 
Q 2772 3750 2511 3984 
Q 2250 4219 1831 4219 
Q 1534 4219 1204 4116 
Q 875 4013 500 3803 
L 500 4441 
Q 881 4594 1212 4672 
Q 1544 4750 1819 4750 
Q 2544 4750 2975 4387 
Q 3406 4025 3406 3419 
Q 3406 3131 3298 2873 
Q 3191 2616 2906 2266 
Q 2828 2175 2409 1742 
Q 1991 1309 1228 531 
z
" transform="scale(0.015625)"/>
       </defs>
       <use xlink:href="#DejaVuSans-2212"/>
       <use xlink:href="#DejaVuSans-32" x="83.789062"/>
      </g>
     </g>
    </g>
    <g id="xtick_3">
     <g id="line2d_3">
      <g>
       <use xlink:href="#m7aae8e4175" x="288.265038" y="256.32" style="stroke: #000000; stroke-width: 0.8"/>
      </g>
     </g>
     <g id="text_3">
      <!-- −1 -->
      <g transform="translate(280.893944 270.918437) scale(0.1 -0.1)">
       <defs>
        <path id="DejaVuSans-31" d="M 794 531 
L 1825 531 
L 1825 4091 
L 703 3866 
L 703 4441 
L 1819 4666 
L 2450 4666 
L 2450 531 
L 3481 531 
L 3481 0 
L 794 0 
L 794 531 
z
" transform="scale(0.015625)"/>
       </defs>
       <use xlink:href="#DejaVuSans-2212"/>
       <use xlink:href="#DejaVuSans-31" x="83.789062"/>
      </g>
     </g>
    </g>
    <g id="xtick_4">
     <g id="line2d_4">
      <g>
       <use xlink:href="#m7aae8e4175" x="369" y="256.32" style="stroke: #000000; stroke-width: 0.8"/>
      </g>
     </g>
     <g id="text_4">
      <!-- 0 -->
      <g transform="translate(365.81875 270.918437) scale(0.1 -0.1)">
       <defs>
        <path id="DejaVuSans-30" d="M 2034 4250 
Q 1547 4250 1301 3770 
Q 1056 3291 1056 2328 
Q 1056 1369 1301 889 
Q 1547 409 2034 409 
Q 2525 409 2770 889 
Q 3016 1369 3016 2328 
Q 3016 3291 2770 3770 
Q 2525 4250 2034 4250 
z
M 2034 4750 
Q 2819 4750 3233 4129 
Q 3647 3509 3647 2328 
Q 3647 1150 3233 529 
Q 2819 -91 2034 -91 
Q 1250 -91 836 529 
Q 422 1150 422 2328 
Q 422 3509 836 4129 
Q 1250 4750 2034 4750 
z
" transform="scale(0.015625)"/>
       </defs>
       <use xlink:href="#DejaVuSans-30"/>
      </g>
     </g>
    </g>
    <g id="xtick_5">
     <g id="line2d_5">
      <g>
       <use xlink:href="#m7aae8e4175" x="449.734962" y="256.32" style="stroke: #000000; stroke-width: 0.8"/>
      </g>
     </g>
     <g id="text_5">
      <!-- 1 -->
      <g transform="translate(446.553712 270.918437) scale(0.1 -0.1)">
       <use xlink:href="#DejaVuSans-31"/>
      </g>
     </g>
    </g>
    <g id="xtick_6">
     <g id="line2d_6">
      <g>
       <use xlink:href="#m7aae8e4175" x="530.469924" y="256.32" style="stroke: #000000; stroke-width: 0.8"/>
      </g>
     </g>
     <g id="text_6">
      <!-- 2 -->
      <g transform="translate(527.288674 270.918437) scale(0.1 -0.1)">
       <use xlink:href="#DejaVuSans-32"/>
      </g>
     </g>
    </g>
    <g id="xtick_7">
     <g id="line2d_7">
      <g>
       <use xlink:href="#m7aae8e4175" x="611.204886" y="256.32" style="stroke: #000000; stroke-width: 0.8"/>
      </g>
     </g>
     <g id="text_7">
      <!-- 3 -->
      <g transform="translate(608.023636 270.918437) scale(0.1 -0.1)">
       <use xlink:href="#DejaVuSans-33"/>
      </g>
     </g>
    </g>
    <g id="text_8">
     <!-- z -->
     <g transform="translate(366.375781 284.596563) scale(0.1 -0.1)">
      <defs>
       <path id="DejaVuSans-7a" d="M 353 3500 
L 3084 3500 
L 3084 2975 
L 922 459 
L 3084 459 
L 3084 0 
L 275 0 
L 275 525 
L 2438 3041 
L 353 3041 
L 353 3500 
z
" transform="scale(0.015625)"/>
      </defs>
      <use xlink:href="#DejaVuSans-7a"/>
     </g>
    </g>
   </g>
   <g id="matplotlib.axis_2">
    <g id="ytick_1">
     <g id="line2d_8">
      <defs>
       <path id="m87e13d0ceb" d="M 0 0 
L -3.5 0 
" style="stroke: #000000; stroke-width: 0.8"/>
      </defs>
      <g>
       <use xlink:href="#m87e13d0ceb" x="90" y="250.080046" style="stroke: #000000; stroke-width: 0.8"/>
      </g>
     </g>
     <g id="text_9">
      <!-- −0.2 -->
      <g transform="translate(58.717187 253.879265) scale(0.1 -0.1)">
       <defs>
        <path id="DejaVuSans-2e" d="M 684 794 
L 1344 794 
L 1344 0 
L 684 0 
L 684 794 
z
" transform="scale(0.015625)"/>
       </defs>
       <use xlink:href="#DejaVuSans-2212"/>
       <use xlink:href="#DejaVuSans-30" x="83.789062"/>
       <use xlink:href="#DejaVuSans-2e" x="147.412109"/>
       <use xlink:href="#DejaVuSans-32" x="179.199219"/>
      </g>
     </g>
    </g>
    <g id="ytick_2">
     <g id="line2d_9">
      <g>
       <use xlink:href="#m87e13d0ceb" x="90" y="215.839827" style="stroke: #000000; stroke-width: 0.8"/>
      </g>
     </g>
     <g id="text_10">
      <!-- 0.0 -->
      <g transform="translate(67.096875 219.639045) scale(0.1 -0.1)">
       <use xlink:href="#DejaVuSans-30"/>
       <use xlink:href="#DejaVuSans-2e" x="63.623047"/>
       <use xlink:href="#DejaVuSans-30" x="95.410156"/>
      </g>
     </g>
    </g>
    <g id="ytick_3">
     <g id="line2d_10">
      <g>
       <use xlink:href="#m87e13d0ceb" x="90" y="181.599607" style="stroke: #000000; stroke-width: 0.8"/>
      </g>
     </g>
     <g id="text_11">
      <!-- 0.2 -->
      <g transform="translate(67.096875 185.398826) scale(0.1 -0.1)">
       <use xlink:href="#DejaVuSans-30"/>
       <use xlink:href="#DejaVuSans-2e" x="63.623047"/>
       <use xlink:href="#DejaVuSans-32" x="95.410156"/>
      </g>
     </g>
    </g>
    <g id="ytick_4">
     <g id="line2d_11">
      <g>
       <use xlink:href="#m87e13d0ceb" x="90" y="147.359388" style="stroke: #000000; stroke-width: 0.8"/>
      </g>
     </g>
     <g id="text_12">
      <!-- 0.4 -->
      <g transform="translate(67.096875 151.158607) scale(0.1 -0.1)">
       <defs>
        <path id="DejaVuSans-34" d="M 2419 4116 
L 825 1625 
L 2419 1625 
L 2419 4116 
z
M 2253 4666 
L 3047 4666 
L 3047 1625 
L 3713 1625 
L 3713 1100 
L 3047 1100 
L 3047 0 
L 2419 0 
L 2419 1100 
L 313 1100 
L 313 1709 
L 2253 4666 
z
" transform="scale(0.015625)"/>
       </defs>
       <use xlink:href="#DejaVuSans-30"/>
       <use xlink:href="#DejaVuSans-2e" x="63.623047"/>
       <use xlink:href="#DejaVuSans-34" x="95.410156"/>
      </g>
     </g>
    </g>
    <g id="ytick_5">
     <g id="line2d_12">
      <g>
       <use xlink:href="#m87e13d0ceb" x="90" y="113.119169" style="stroke: #000000; stroke-width: 0.8"/>
      </g>
     </g>
     <g id="text_13">
      <!-- 0.6 -->
      <g transform="translate(67.096875 116.918388) scale(0.1 -0.1)">
       <defs>
        <path id="DejaVuSans-36" d="M 2113 2584 
Q 1688 2584 1439 2293 
Q 1191 2003 1191 1497 
Q 1191 994 1439 701 
Q 1688 409 2113 409 
Q 2538 409 2786 701 
Q 3034 994 3034 1497 
Q 3034 2003 2786 2293 
Q 2538 2584 2113 2584 
z
M 3366 4563 
L 3366 3988 
Q 3128 4100 2886 4159 
Q 2644 4219 2406 4219 
Q 1781 4219 1451 3797 
Q 1122 3375 1075 2522 
Q 1259 2794 1537 2939 
Q 1816 3084 2150 3084 
Q 2853 3084 3261 2657 
Q 3669 2231 3669 1497 
Q 3669 778 3244 343 
Q 2819 -91 2113 -91 
Q 1303 -91 875 529 
Q 447 1150 447 2328 
Q 447 3434 972 4092 
Q 1497 4750 2381 4750 
Q 2619 4750 2861 4703 
Q 3103 4656 3366 4563 
z
" transform="scale(0.015625)"/>
       </defs>
       <use xlink:href="#DejaVuSans-30"/>
       <use xlink:href="#DejaVuSans-2e" x="63.623047"/>
       <use xlink:href="#DejaVuSans-36" x="95.410156"/>
      </g>
     </g>
    </g>
    <g id="ytick_6">
     <g id="line2d_13">
      <g>
       <use xlink:href="#m87e13d0ceb" x="90" y="78.87895" style="stroke: #000000; stroke-width: 0.8"/>
      </g>
     </g>
     <g id="text_14">
      <!-- 0.8 -->
      <g transform="translate(67.096875 82.678168) scale(0.1 -0.1)">
       <defs>
        <path id="DejaVuSans-38" d="M 2034 2216 
Q 1584 2216 1326 1975 
Q 1069 1734 1069 1313 
Q 1069 891 1326 650 
Q 1584 409 2034 409 
Q 2484 409 2743 651 
Q 3003 894 3003 1313 
Q 3003 1734 2745 1975 
Q 2488 2216 2034 2216 
z
M 1403 2484 
Q 997 2584 770 2862 
Q 544 3141 544 3541 
Q 544 4100 942 4425 
Q 1341 4750 2034 4750 
Q 2731 4750 3128 4425 
Q 3525 4100 3525 3541 
Q 3525 3141 3298 2862 
Q 3072 2584 2669 2484 
Q 3125 2378 3379 2068 
Q 3634 1759 3634 1313 
Q 3634 634 3220 271 
Q 2806 -91 2034 -91 
Q 1263 -91 848 271 
Q 434 634 434 1313 
Q 434 1759 690 2068 
Q 947 2378 1403 2484 
z
M 1172 3481 
Q 1172 3119 1398 2916 
Q 1625 2713 2034 2713 
Q 2441 2713 2670 2916 
Q 2900 3119 2900 3481 
Q 2900 3844 2670 4047 
Q 2441 4250 2034 4250 
Q 1625 4250 1398 4047 
Q 1172 3844 1172 3481 
z
" transform="scale(0.015625)"/>
       </defs>
       <use xlink:href="#DejaVuSans-30"/>
       <use xlink:href="#DejaVuSans-2e" x="63.623047"/>
       <use xlink:href="#DejaVuSans-38" x="95.410156"/>
      </g>
     </g>
    </g>
    <g id="ytick_7">
     <g id="line2d_14">
      <g>
       <use xlink:href="#m87e13d0ceb" x="90" y="44.63873" style="stroke: #000000; stroke-width: 0.8"/>
      </g>
     </g>
     <g id="text_15">
      <!-- 1.0 -->
      <g transform="translate(67.096875 48.437949) scale(0.1 -0.1)">
       <use xlink:href="#DejaVuSans-31"/>
       <use xlink:href="#DejaVuSans-2e" x="63.623047"/>
       <use xlink:href="#DejaVuSans-30" x="95.410156"/>
      </g>
     </g>
    </g>
   </g>
   <g id="line2d_15">
    <path d="M 90 215.839827 
L 648 215.839827 
" clip-path="url(#pca01f3a872)" style="fill: none; stroke: #000000; stroke-width: 0.5; stroke-linecap: square"/>
   </g>
   <g id="line2d_16">
    <path d="M 115.363636 230.358531 
L 127.042588 233.778067 
L 149.892711 240.547779 
L 157.509419 242.532047 
L 163.602785 243.903547 
L 169.18837 244.935522 
L 174.266175 245.643333 
L 178.8362 246.059447 
L 183.406224 246.236176 
L 187.468468 246.168689 
L 191.530713 245.8686 
L 195.085176 245.399469 
L 198.63964 244.723887 
L 202.194103 243.829311 
L 205.748567 242.703823 
L 209.30303 241.336267 
L 212.857494 239.716385 
L 216.411957 237.834964 
L 219.966421 235.683965 
L 223.520885 233.256663 
L 227.075348 230.547774 
L 230.629812 227.553584 
L 234.184275 224.272056 
L 237.738739 220.702945 
L 241.293202 216.847891 
L 245.355446 212.096698 
L 249.41769 206.985451 
L 253.479934 201.526368 
L 258.049959 194.989015 
L 262.619984 188.059718 
L 267.697789 179.942283 
L 273.283374 170.5684 
L 279.37674 159.907933 
L 287.501229 145.201655 
L 308.320229 107.233403 
L 314.413595 96.723203 
L 319.4914 88.394582 
L 324.061425 81.315984 
L 328.123669 75.411114 
L 332.185913 69.916718 
L 335.740377 65.478611 
L 339.29484 61.412682 
L 342.341523 58.24211 
L 345.388206 55.376562 
L 348.434889 52.828659 
L 351.481572 50.609685 
L 354.020475 49.018971 
L 356.559378 47.668494 
L 359.09828 46.562453 
L 361.637183 45.704294 
L 364.176085 45.096698 
L 366.714988 44.741563 
L 369.25389 44.64 
L 371.792793 44.792328 
L 374.331695 45.19807 
L 376.870598 45.855956 
L 379.4095 46.76393 
L 381.948403 47.919158 
L 384.487305 49.318042 
L 387.026208 50.956235 
L 389.565111 52.828659 
L 392.611794 55.376562 
L 395.658477 58.24211 
L 398.70516 61.412682 
L 401.751843 64.874394 
L 405.306306 69.260882 
L 408.86077 73.997361 
L 412.923014 79.803659 
L 416.985258 85.987547 
L 421.555283 93.338778 
L 426.633088 101.917129 
L 432.726454 112.651187 
L 441.358722 128.370551 
L 458.115479 159.002762 
L 464.716626 170.5684 
L 470.302211 179.942283 
L 475.380016 188.059718 
L 479.950041 194.989015 
L 484.520066 201.526368 
L 488.58231 206.985451 
L 492.644554 212.096698 
L 496.706798 216.847891 
L 500.769042 221.230384 
L 504.323505 224.758467 
L 507.877969 227.998889 
L 511.432432 230.952157 
L 514.986896 233.620553 
L 518.54136 236.008025 
L 522.095823 238.120069 
L 525.650287 239.963607 
L 529.20475 241.546852 
L 532.759214 242.879177 
L 536.313677 243.970975 
L 539.868141 244.83352 
L 543.422604 245.478828 
L 546.977068 245.919521 
L 551.039312 246.18943 
L 555.101556 246.229269 
L 559.1638 246.059447 
L 563.733825 245.643333 
L 568.81163 244.935522 
L 573.889435 244.007062 
L 579.982801 242.654672 
L 587.091728 240.826059 
L 596.231777 238.215331 
L 622.636364 230.358531 
L 622.636364 230.358531 
" clip-path="url(#pca01f3a872)" style="fill: none; stroke: #000000; stroke-width: 1.2; stroke-linecap: square"/>
   </g>
   <g id="line2d_17">
    <path d="M 115.363636 215.839827 
L 251.956593 215.731783 
L 259.573301 215.46927 
L 265.158886 215.071187 
L 269.728911 214.532033 
L 273.791155 213.820615 
L 277.345618 212.959561 
L 280.392301 211.998482 
L 283.438984 210.787911 
L 285.977887 209.555719 
L 288.51679 208.090398 
L 291.055692 206.362425 
L 293.594595 204.341529 
L 296.133497 201.997331 
L 298.6724 199.30011 
L 301.211302 196.22169 
L 303.750205 192.736422 
L 306.289107 188.822267 
L 308.82801 184.461926 
L 311.366912 179.644004 
L 313.905815 174.364159 
L 316.444717 168.626196 
L 319.4914 161.154844 
L 322.538084 153.084423 
L 326.092547 142.997916 
L 330.154791 130.761258 
L 336.248157 111.592054 
L 342.849304 90.98571 
L 346.403767 80.564061 
L 349.45045 72.295264 
L 351.989353 66.011151 
L 354.528256 60.384194 
L 356.559378 56.417244 
L 358.5905 52.971245 
L 360.113841 50.751086 
L 361.637183 48.858464 
L 363.160524 47.305045 
L 364.683866 46.100464 
L 366.207207 45.252234 
L 367.222768 44.887434 
L 368.238329 44.684437 
L 369.25389 44.643809 
L 370.269451 44.765664 
L 371.285012 45.049662 
L 372.300573 45.495009 
L 373.823915 46.462723 
L 375.347256 47.784525 
L 376.870598 49.452185 
L 378.393939 51.455378 
L 379.917281 53.781791 
L 381.948403 57.361702 
L 383.979525 61.452513 
L 386.010647 66.011151 
L 388.54955 72.295264 
L 391.596233 80.564061 
L 395.150696 90.98571 
L 399.720721 105.159031 
L 409.876331 136.959687 
L 413.938575 148.843549 
L 417.493038 158.528592 
L 420.539722 166.20531 
L 423.586405 173.252939 
L 426.125307 178.624991 
L 428.66421 183.535196 
L 431.203112 187.986351 
L 433.742015 191.988531 
L 436.280917 195.557948 
L 438.81982 198.715786 
L 441.358722 201.487059 
L 443.897625 203.89952 
L 446.436527 205.982655 
L 448.97543 207.766777 
L 451.514333 209.282235 
L 454.053235 210.558745 
L 457.099918 211.815229 
L 460.146601 212.814891 
L 463.701065 213.712654 
L 467.255528 214.37752 
L 471.317772 214.917031 
L 476.395577 215.350781 
L 482.488943 215.638512 
L 491.121212 215.80718 
L 507.370188 215.855617 
L 622.636364 215.839827 
L 622.636364 215.839827 
" clip-path="url(#pca01f3a872)" style="fill: none; stroke: #555555; stroke-width: 1.2; stroke-linecap: square"/>
   </g>
   <g id="line2d_18">
    <path d="M 115.363636 215.839827 
L 325.584767 215.733228 
L 329.13923 215.499695 
L 331.678133 215.106772 
L 333.709255 214.533419 
L 335.232596 213.867195 
L 336.755938 212.91502 
L 337.771499 212.075086 
L 338.78706 211.033017 
L 339.802621 209.751982 
L 340.818182 208.191689 
L 341.833743 206.308923 
L 342.849304 204.058358 
L 343.864865 201.393668 
L 344.880426 198.268943 
L 346.403767 192.624642 
L 347.927109 185.72 
L 349.45045 177.465893 
L 350.973792 167.830536 
L 352.497133 156.857645 
L 354.528256 140.393427 
L 357.067158 117.76454 
L 361.129402 81.484594 
L 362.652744 69.603529 
L 364.176085 59.536084 
L 365.191646 54.082347 
L 366.207207 49.783826 
L 367.222768 46.74121 
L 367.730549 45.714669 
L 368.238329 45.02685 
L 368.74611 44.681898 
L 369.25389 44.681898 
L 369.761671 45.02685 
L 370.269451 45.714669 
L 370.777232 46.74121 
L 371.285012 48.100304 
L 372.300573 51.781768 
L 373.316134 56.672113 
L 374.331695 62.657891 
L 375.855037 73.38912 
L 377.378378 85.752467 
L 379.917281 108.442868 
L 383.471744 140.393427 
L 385.502867 156.857645 
L 387.026208 167.830536 
L 388.54955 177.465893 
L 390.072891 185.72 
L 391.596233 192.624642 
L 393.119574 198.268943 
L 394.642916 202.780676 
L 395.658477 205.232502 
L 396.674038 207.29341 
L 397.689599 209.009383 
L 398.70516 210.424812 
L 399.720721 211.581534 
L 401.244062 212.91502 
L 402.767404 213.867195 
L 404.290745 214.533419 
L 406.321867 215.106772 
L 408.352989 215.441621 
L 411.399672 215.689813 
L 416.477477 215.81477 
L 432.218673 215.8398 
L 622.636364 215.839827 
L 622.636364 215.839827 
" clip-path="url(#pca01f3a872)" style="fill: none; stroke: #aaaaaa; stroke-width: 1.2; stroke-linecap: square"/>
   </g>
   <g id="patch_3">
    <path d="M 90 256.32 
L 90 34.56 
" style="fill: none; stroke: #000000; stroke-width: 0.8; stroke-linejoin: miter; stroke-linecap: square"/>
   </g>
   <g id="patch_4">
    <path d="M 648 256.32 
L 648 34.56 
" style="fill: none; stroke: #000000; stroke-width: 0.8; stroke-linejoin: miter; stroke-linecap: square"/>
   </g>
   <g id="patch_5">
    <path d="M 90 256.32 
L 648 256.32 
" style="fill: none; stroke: #000000; stroke-width: 0.8; stroke-linejoin: miter; stroke-linecap: square"/>
   </g>
   <g id="patch_6">
    <path d="M 90 34.56 
L 648 34.56 
" style="fill: none; stroke: #000000; stroke-width: 0.8; stroke-linejoin: miter; stroke-linecap: square"/>
   </g>
   <g id="legend_1">
    <g id="patch_7">
     <path d="M 560.4 86.594375 
L 641 86.594375 
Q 643 86.594375 643 84.594375 
L 643 41.56 
Q 643 39.56 641 39.56 
L 560.4 39.56 
Q 558.4 39.56 558.4 41.56 
L 558.4 84.594375 
Q 558.4 86.594375 560.4 86.594375 
z
" style="fill: #ffffff; opacity: 0.8; stroke: #cccccc; stroke-linejoin: miter"/>
    </g>
    <g id="line2d_19">
     <path d="M 562.4 47.658438 
L 572.4 47.658438 
L 582.4 47.658438 
" style="fill: none; stroke: #000000; stroke-width: 1.2; stroke-linecap: square"/>
    </g>
    <g id="text_16">
     <!-- $\Omega = 0.25$ -->
     <g transform="translate(590.4 51.158438) scale(0.1 -0.1)">
      <defs>
       <path id="DejaVuSans-3a9" d="M 4647 556 
L 4647 0 
L 2772 0 
L 2772 556 
Q 3325 859 3634 1378 
Q 3944 1897 3944 2528 
Q 3944 3278 3531 3731 
Q 3119 4184 2444 4184 
Q 1769 4184 1355 3729 
Q 941 3275 941 2528 
Q 941 1897 1250 1378 
Q 1563 859 2119 556 
L 2119 0 
L 244 0 
L 244 556 
L 1241 556 
Q 747 991 519 1456 
Q 294 1922 294 2497 
Q 294 3491 894 4106 
Q 1491 4722 2444 4722 
Q 3391 4722 3994 4106 
Q 4594 3494 4594 2528 
Q 4594 1922 4372 1459 
Q 4150 997 3647 556 
L 4647 556 
z
" transform="scale(0.015625)"/>
       <path id="DejaVuSans-3d" d="M 678 2906 
L 4684 2906 
L 4684 2381 
L 678 2381 
L 678 2906 
z
M 678 1631 
L 4684 1631 
L 4684 1100 
L 678 1100 
L 678 1631 
z
" transform="scale(0.015625)"/>
       <path id="DejaVuSans-35" d="M 691 4666 
L 3169 4666 
L 3169 4134 
L 1269 4134 
L 1269 2991 
Q 1406 3038 1543 3061 
Q 1681 3084 1819 3084 
Q 2600 3084 3056 2656 
Q 3513 2228 3513 1497 
Q 3513 744 3044 326 
Q 2575 -91 1722 -91 
Q 1428 -91 1123 -41 
Q 819 9 494 109 
L 494 744 
Q 775 591 1075 516 
Q 1375 441 1709 441 
Q 2250 441 2565 725 
Q 2881 1009 2881 1497 
Q 2881 1984 2565 2268 
Q 2250 2553 1709 2553 
Q 1456 2553 1204 2497 
Q 953 2441 691 2322 
L 691 4666 
z
" transform="scale(0.015625)"/>
      </defs>
      <use xlink:href="#DejaVuSans-3a9" transform="translate(0 0.78125)"/>
      <use xlink:href="#DejaVuSans-3d" transform="translate(95.898438 0.78125)"/>
      <use xlink:href="#DejaVuSans-30" transform="translate(199.169922 0.78125)"/>
      <use xlink:href="#DejaVuSans-2e" transform="translate(262.792969 0.78125)"/>
      <use xlink:href="#DejaVuSans-32" transform="translate(289.080078 0.78125)"/>
      <use xlink:href="#DejaVuSans-35" transform="translate(352.703125 0.78125)"/>
     </g>
    </g>
    <g id="line2d_20">
     <path d="M 562.4 62.336563 
L 572.4 62.336563 
L 582.4 62.336563 
" style="fill: none; stroke: #555555; stroke-width: 1.2; stroke-linecap: square"/>
    </g>
    <g id="text_17">
     <!-- $\Omega = 2.50$ -->
     <g transform="translate(590.4 65.836563) scale(0.1 -0.1)">
      <use xlink:href="#DejaVuSans-3a9" transform="translate(0 0.78125)"/>
      <use xlink:href="#DejaVuSans-3d" transform="translate(95.898438 0.78125)"/>
      <use xlink:href="#DejaVuSans-32" transform="translate(199.169922 0.78125)"/>
      <use xlink:href="#DejaVuSans-2e" transform="translate(262.792969 0.78125)"/>
      <use xlink:href="#DejaVuSans-35" transform="translate(294.580078 0.78125)"/>
      <use xlink:href="#DejaVuSans-30" transform="translate(358.203125 0.78125)"/>
     </g>
    </g>
    <g id="line2d_21">
     <path d="M 562.4 77.014688 
L 572.4 77.014688 
L 582.4 77.014688 
" style="fill: none; stroke: #aaaaaa; stroke-width: 1.2; stroke-linecap: square"/>
    </g>
    <g id="text_18">
     <!-- $\Omega = 25.00$ -->
     <g transform="translate(590.4 80.514688) scale(0.1 -0.1)">
      <use xlink:href="#DejaVuSans-3a9" transform="translate(0 0.78125)"/>
      <use xlink:href="#DejaVuSans-3d" transform="translate(95.898438 0.78125)"/>
      <use xlink:href="#DejaVuSans-32" transform="translate(199.169922 0.78125)"/>
      <use xlink:href="#DejaVuSans-35" transform="translate(262.792969 0.78125)"/>
      <use xlink:href="#DejaVuSans-2e" transform="translate(326.416016 0.78125)"/>
      <use xlink:href="#DejaVuSans-30" transform="translate(358.203125 0.78125)"/>
      <use xlink:href="#DejaVuSans-30" transform="translate(421.826172 0.78125)"/>
     </g>
    </g>
   </g>
  </g>
 </g>
 <defs>
  <clipPath id="pca01f3a872">
   <rect x="90" y="34.56" width="558" height="221.76"/>
  </clipPath>
 </defs>
</svg>
